<mxfile host="app.diagrams.net" agent="Mozilla/5.0 (Windows NT 10.0; Win64; x64) AppleWebKit/537.36 (KHTML, like Gecko) Chrome/134.0.0.0 Safari/537.36" version="26.1.3">
  <diagram name="Seite-1" id="LY3Ysgy6g7fplGYvHEqB">
    <mxGraphModel dx="1195" dy="622" grid="1" gridSize="10" guides="1" tooltips="1" connect="1" arrows="1" fold="1" page="1" pageScale="1" pageWidth="827" pageHeight="1169" math="0" shadow="0">
      <root>
        <mxCell id="0" />
        <mxCell id="1" parent="0" />
        <mxCell id="Rzs6RU2i9_IVWcCldY1r-5" style="edgeStyle=orthogonalEdgeStyle;rounded=0;orthogonalLoop=1;jettySize=auto;html=1;exitX=0.5;exitY=1;exitDx=0;exitDy=0;entryX=0.5;entryY=0;entryDx=0;entryDy=0;" edge="1" parent="1" source="Rzs6RU2i9_IVWcCldY1r-1" target="Rzs6RU2i9_IVWcCldY1r-2">
          <mxGeometry relative="1" as="geometry" />
        </mxCell>
        <mxCell id="Rzs6RU2i9_IVWcCldY1r-1" value="Alpha Phase" style="rounded=1;whiteSpace=wrap;html=1;" vertex="1" parent="1">
          <mxGeometry x="354" y="40" width="120" height="60" as="geometry" />
        </mxCell>
        <mxCell id="Rzs6RU2i9_IVWcCldY1r-4" style="edgeStyle=orthogonalEdgeStyle;rounded=0;orthogonalLoop=1;jettySize=auto;html=1;exitX=0.5;exitY=1;exitDx=0;exitDy=0;" edge="1" parent="1" source="Rzs6RU2i9_IVWcCldY1r-2" target="Rzs6RU2i9_IVWcCldY1r-3">
          <mxGeometry relative="1" as="geometry" />
        </mxCell>
        <mxCell id="Rzs6RU2i9_IVWcCldY1r-2" value="Grundlegende Spielmechaniken" style="rounded=0;whiteSpace=wrap;html=1;" vertex="1" parent="1">
          <mxGeometry x="354" y="120" width="120" height="60" as="geometry" />
        </mxCell>
        <mxCell id="Rzs6RU2i9_IVWcCldY1r-16" style="edgeStyle=orthogonalEdgeStyle;rounded=0;orthogonalLoop=1;jettySize=auto;html=1;exitX=0;exitY=1;exitDx=0;exitDy=0;" edge="1" parent="1" source="Rzs6RU2i9_IVWcCldY1r-3" target="Rzs6RU2i9_IVWcCldY1r-10">
          <mxGeometry relative="1" as="geometry" />
        </mxCell>
        <mxCell id="Rzs6RU2i9_IVWcCldY1r-17" style="edgeStyle=orthogonalEdgeStyle;rounded=0;orthogonalLoop=1;jettySize=auto;html=1;exitX=0;exitY=0.5;exitDx=0;exitDy=0;" edge="1" parent="1" source="Rzs6RU2i9_IVWcCldY1r-3" target="Rzs6RU2i9_IVWcCldY1r-6">
          <mxGeometry relative="1" as="geometry" />
        </mxCell>
        <mxCell id="Rzs6RU2i9_IVWcCldY1r-18" style="edgeStyle=orthogonalEdgeStyle;rounded=0;orthogonalLoop=1;jettySize=auto;html=1;exitX=1;exitY=0.5;exitDx=0;exitDy=0;" edge="1" parent="1" source="Rzs6RU2i9_IVWcCldY1r-3" target="Rzs6RU2i9_IVWcCldY1r-15">
          <mxGeometry relative="1" as="geometry" />
        </mxCell>
        <mxCell id="Rzs6RU2i9_IVWcCldY1r-20" style="edgeStyle=orthogonalEdgeStyle;rounded=0;orthogonalLoop=1;jettySize=auto;html=1;exitX=1;exitY=1;exitDx=0;exitDy=0;" edge="1" parent="1" source="Rzs6RU2i9_IVWcCldY1r-3" target="Rzs6RU2i9_IVWcCldY1r-14">
          <mxGeometry relative="1" as="geometry" />
        </mxCell>
        <mxCell id="Rzs6RU2i9_IVWcCldY1r-3" value="Definition der Sprints" style="rhombus;whiteSpace=wrap;html=1;" vertex="1" parent="1">
          <mxGeometry x="366" y="200" width="96" height="100" as="geometry" />
        </mxCell>
        <mxCell id="Rzs6RU2i9_IVWcCldY1r-30" style="edgeStyle=orthogonalEdgeStyle;rounded=0;orthogonalLoop=1;jettySize=auto;html=1;exitX=0.5;exitY=1.017;exitDx=0;exitDy=0;entryX=0;entryY=0.5;entryDx=0;entryDy=0;exitPerimeter=0;" edge="1" parent="1" source="Rzs6RU2i9_IVWcCldY1r-8" target="Rzs6RU2i9_IVWcCldY1r-24">
          <mxGeometry relative="1" as="geometry" />
        </mxCell>
        <mxCell id="Rzs6RU2i9_IVWcCldY1r-6" value="Ziehen von Karten" style="swimlane;fontStyle=0;childLayout=stackLayout;horizontal=1;startSize=30;horizontalStack=0;resizeParent=1;resizeParentMax=0;resizeLast=0;collapsible=1;marginBottom=0;whiteSpace=wrap;html=1;" vertex="1" parent="1">
          <mxGeometry x="40" y="320" width="140" height="90" as="geometry" />
        </mxCell>
        <mxCell id="Rzs6RU2i9_IVWcCldY1r-7" value="Schiffskarten" style="text;strokeColor=none;fillColor=none;align=left;verticalAlign=middle;spacingLeft=4;spacingRight=4;overflow=hidden;points=[[0,0.5],[1,0.5]];portConstraint=eastwest;rotatable=0;whiteSpace=wrap;html=1;" vertex="1" parent="Rzs6RU2i9_IVWcCldY1r-6">
          <mxGeometry y="30" width="140" height="30" as="geometry" />
        </mxCell>
        <mxCell id="Rzs6RU2i9_IVWcCldY1r-8" value="Spezialfähigkeiten" style="text;strokeColor=none;fillColor=none;align=left;verticalAlign=middle;spacingLeft=4;spacingRight=4;overflow=hidden;points=[[0,0.5],[1,0.5]];portConstraint=eastwest;rotatable=0;whiteSpace=wrap;html=1;" vertex="1" parent="Rzs6RU2i9_IVWcCldY1r-6">
          <mxGeometry y="60" width="140" height="30" as="geometry" />
        </mxCell>
        <mxCell id="Rzs6RU2i9_IVWcCldY1r-10" value="Spielerinteraktion" style="swimlane;fontStyle=0;childLayout=stackLayout;horizontal=1;startSize=30;horizontalStack=0;resizeParent=1;resizeParentMax=0;resizeLast=0;collapsible=1;marginBottom=0;whiteSpace=wrap;html=1;" vertex="1" parent="1">
          <mxGeometry x="200" y="320" width="140" height="120" as="geometry" />
        </mxCell>
        <mxCell id="Rzs6RU2i9_IVWcCldY1r-11" value="Schiffe Platzieren" style="text;strokeColor=none;fillColor=none;align=left;verticalAlign=middle;spacingLeft=4;spacingRight=4;overflow=hidden;points=[[0,0.5],[1,0.5]];portConstraint=eastwest;rotatable=0;whiteSpace=wrap;html=1;" vertex="1" parent="Rzs6RU2i9_IVWcCldY1r-10">
          <mxGeometry y="30" width="140" height="30" as="geometry" />
        </mxCell>
        <mxCell id="Rzs6RU2i9_IVWcCldY1r-12" value="Spezialfähigkeiten einsetzen" style="text;strokeColor=none;fillColor=none;align=left;verticalAlign=middle;spacingLeft=4;spacingRight=4;overflow=hidden;points=[[0,0.5],[1,0.5]];portConstraint=eastwest;rotatable=0;whiteSpace=wrap;html=1;" vertex="1" parent="Rzs6RU2i9_IVWcCldY1r-10">
          <mxGeometry y="60" width="140" height="30" as="geometry" />
        </mxCell>
        <mxCell id="Rzs6RU2i9_IVWcCldY1r-13" value="Auf Felder schießen" style="text;strokeColor=none;fillColor=none;align=left;verticalAlign=middle;spacingLeft=4;spacingRight=4;overflow=hidden;points=[[0,0.5],[1,0.5]];portConstraint=eastwest;rotatable=0;whiteSpace=wrap;html=1;" vertex="1" parent="Rzs6RU2i9_IVWcCldY1r-10">
          <mxGeometry y="90" width="140" height="30" as="geometry" />
        </mxCell>
        <mxCell id="Rzs6RU2i9_IVWcCldY1r-26" style="edgeStyle=orthogonalEdgeStyle;rounded=0;orthogonalLoop=1;jettySize=auto;html=1;exitX=0.5;exitY=1;exitDx=0;exitDy=0;entryX=1;entryY=0;entryDx=0;entryDy=0;" edge="1" parent="1" source="Rzs6RU2i9_IVWcCldY1r-14" target="Rzs6RU2i9_IVWcCldY1r-24">
          <mxGeometry relative="1" as="geometry">
            <Array as="points">
              <mxPoint x="570" y="500" />
              <mxPoint x="434" y="500" />
            </Array>
          </mxGeometry>
        </mxCell>
        <mxCell id="Rzs6RU2i9_IVWcCldY1r-14" value="Unterschiedliche Schiffstypen" style="rounded=0;whiteSpace=wrap;html=1;" vertex="1" parent="1">
          <mxGeometry x="510" y="350" width="120" height="60" as="geometry" />
        </mxCell>
        <mxCell id="Rzs6RU2i9_IVWcCldY1r-25" style="edgeStyle=orthogonalEdgeStyle;rounded=0;orthogonalLoop=1;jettySize=auto;html=1;exitX=0.5;exitY=1;exitDx=0;exitDy=0;entryX=1;entryY=0.5;entryDx=0;entryDy=0;" edge="1" parent="1" source="Rzs6RU2i9_IVWcCldY1r-15" target="Rzs6RU2i9_IVWcCldY1r-24">
          <mxGeometry relative="1" as="geometry" />
        </mxCell>
        <mxCell id="Rzs6RU2i9_IVWcCldY1r-15" value="Zerstörung von Schiffen" style="rounded=0;whiteSpace=wrap;html=1;" vertex="1" parent="1">
          <mxGeometry x="650" y="350" width="120" height="60" as="geometry" />
        </mxCell>
        <mxCell id="Rzs6RU2i9_IVWcCldY1r-21" style="edgeStyle=orthogonalEdgeStyle;rounded=0;orthogonalLoop=1;jettySize=auto;html=1;exitX=1;exitY=0.5;exitDx=0;exitDy=0;entryX=0;entryY=0.5;entryDx=0;entryDy=0;" edge="1" parent="1" source="Rzs6RU2i9_IVWcCldY1r-8" target="Rzs6RU2i9_IVWcCldY1r-12">
          <mxGeometry relative="1" as="geometry" />
        </mxCell>
        <mxCell id="Rzs6RU2i9_IVWcCldY1r-22" style="edgeStyle=orthogonalEdgeStyle;rounded=0;orthogonalLoop=1;jettySize=auto;html=1;exitX=1;exitY=0.5;exitDx=0;exitDy=0;" edge="1" parent="1" source="Rzs6RU2i9_IVWcCldY1r-7" target="Rzs6RU2i9_IVWcCldY1r-14">
          <mxGeometry relative="1" as="geometry">
            <Array as="points">
              <mxPoint x="190" y="365" />
              <mxPoint x="190" y="470" />
              <mxPoint x="500" y="470" />
              <mxPoint x="500" y="380" />
            </Array>
          </mxGeometry>
        </mxCell>
        <mxCell id="Rzs6RU2i9_IVWcCldY1r-23" style="edgeStyle=orthogonalEdgeStyle;rounded=0;orthogonalLoop=1;jettySize=auto;html=1;exitX=1;exitY=0.5;exitDx=0;exitDy=0;entryX=0;entryY=0.5;entryDx=0;entryDy=0;" edge="1" parent="1" source="Rzs6RU2i9_IVWcCldY1r-13" target="Rzs6RU2i9_IVWcCldY1r-15">
          <mxGeometry relative="1" as="geometry">
            <Array as="points">
              <mxPoint x="640" y="425" />
              <mxPoint x="640" y="380" />
            </Array>
          </mxGeometry>
        </mxCell>
        <mxCell id="Rzs6RU2i9_IVWcCldY1r-29" style="edgeStyle=orthogonalEdgeStyle;rounded=0;orthogonalLoop=1;jettySize=auto;html=1;entryX=0;entryY=0;entryDx=0;entryDy=0;exitX=0.476;exitY=0.989;exitDx=0;exitDy=0;exitPerimeter=0;" edge="1" parent="1" source="Rzs6RU2i9_IVWcCldY1r-13" target="Rzs6RU2i9_IVWcCldY1r-24">
          <mxGeometry relative="1" as="geometry">
            <Array as="points">
              <mxPoint x="267" y="500" />
              <mxPoint x="394" y="500" />
            </Array>
          </mxGeometry>
        </mxCell>
        <mxCell id="Rzs6RU2i9_IVWcCldY1r-33" style="edgeStyle=orthogonalEdgeStyle;rounded=0;orthogonalLoop=1;jettySize=auto;html=1;exitX=0;exitY=1;exitDx=0;exitDy=0;entryX=0.5;entryY=0;entryDx=0;entryDy=0;" edge="1" parent="1" source="Rzs6RU2i9_IVWcCldY1r-24" target="Rzs6RU2i9_IVWcCldY1r-32">
          <mxGeometry relative="1" as="geometry" />
        </mxCell>
        <mxCell id="Rzs6RU2i9_IVWcCldY1r-34" style="edgeStyle=orthogonalEdgeStyle;rounded=0;orthogonalLoop=1;jettySize=auto;html=1;exitX=1;exitY=1;exitDx=0;exitDy=0;" edge="1" parent="1" source="Rzs6RU2i9_IVWcCldY1r-24" target="Rzs6RU2i9_IVWcCldY1r-31">
          <mxGeometry relative="1" as="geometry" />
        </mxCell>
        <mxCell id="Rzs6RU2i9_IVWcCldY1r-24" value="Review" style="rhombus;whiteSpace=wrap;html=1;" vertex="1" parent="1">
          <mxGeometry x="374" y="505" width="80" height="80" as="geometry" />
        </mxCell>
        <mxCell id="Rzs6RU2i9_IVWcCldY1r-36" style="edgeStyle=orthogonalEdgeStyle;rounded=0;orthogonalLoop=1;jettySize=auto;html=1;exitX=0.5;exitY=1;exitDx=0;exitDy=0;entryX=1;entryY=0;entryDx=0;entryDy=0;" edge="1" parent="1" source="Rzs6RU2i9_IVWcCldY1r-31" target="Rzs6RU2i9_IVWcCldY1r-3">
          <mxGeometry relative="1" as="geometry">
            <Array as="points">
              <mxPoint x="570" y="680" />
              <mxPoint x="800" y="680" />
              <mxPoint x="800" y="225" />
            </Array>
          </mxGeometry>
        </mxCell>
        <mxCell id="Rzs6RU2i9_IVWcCldY1r-31" value="Denied" style="rounded=0;whiteSpace=wrap;html=1;" vertex="1" parent="1">
          <mxGeometry x="510" y="600" width="120" height="60" as="geometry" />
        </mxCell>
        <mxCell id="Rzs6RU2i9_IVWcCldY1r-38" style="edgeStyle=orthogonalEdgeStyle;rounded=0;orthogonalLoop=1;jettySize=auto;html=1;exitX=0.5;exitY=1;exitDx=0;exitDy=0;" edge="1" parent="1" source="Rzs6RU2i9_IVWcCldY1r-32" target="Rzs6RU2i9_IVWcCldY1r-37">
          <mxGeometry relative="1" as="geometry" />
        </mxCell>
        <mxCell id="Rzs6RU2i9_IVWcCldY1r-32" value="Approval" style="rounded=0;whiteSpace=wrap;html=1;" vertex="1" parent="1">
          <mxGeometry x="200" y="600" width="120" height="60" as="geometry" />
        </mxCell>
        <mxCell id="Rzs6RU2i9_IVWcCldY1r-40" style="edgeStyle=orthogonalEdgeStyle;rounded=0;orthogonalLoop=1;jettySize=auto;html=1;exitX=0.5;exitY=1;exitDx=0;exitDy=0;" edge="1" parent="1" source="Rzs6RU2i9_IVWcCldY1r-37" target="Rzs6RU2i9_IVWcCldY1r-39">
          <mxGeometry relative="1" as="geometry" />
        </mxCell>
        <mxCell id="Rzs6RU2i9_IVWcCldY1r-37" value="Beta Phase" style="rounded=1;whiteSpace=wrap;html=1;" vertex="1" parent="1">
          <mxGeometry x="354" y="700" width="120" height="60" as="geometry" />
        </mxCell>
        <mxCell id="Rzs6RU2i9_IVWcCldY1r-42" style="edgeStyle=orthogonalEdgeStyle;rounded=0;orthogonalLoop=1;jettySize=auto;html=1;exitX=0.5;exitY=1;exitDx=0;exitDy=0;entryX=0.5;entryY=0;entryDx=0;entryDy=0;" edge="1" parent="1" source="Rzs6RU2i9_IVWcCldY1r-39" target="Rzs6RU2i9_IVWcCldY1r-41">
          <mxGeometry relative="1" as="geometry" />
        </mxCell>
        <mxCell id="Rzs6RU2i9_IVWcCldY1r-39" value="Features, Texturen und Sounds" style="rounded=0;whiteSpace=wrap;html=1;" vertex="1" parent="1">
          <mxGeometry x="354" y="780" width="120" height="60" as="geometry" />
        </mxCell>
        <mxCell id="Rzs6RU2i9_IVWcCldY1r-52" style="edgeStyle=orthogonalEdgeStyle;rounded=0;orthogonalLoop=1;jettySize=auto;html=1;exitX=1;exitY=1;exitDx=0;exitDy=0;" edge="1" parent="1" source="Rzs6RU2i9_IVWcCldY1r-41" target="Rzs6RU2i9_IVWcCldY1r-48">
          <mxGeometry relative="1" as="geometry" />
        </mxCell>
        <mxCell id="Rzs6RU2i9_IVWcCldY1r-53" style="edgeStyle=orthogonalEdgeStyle;rounded=0;orthogonalLoop=1;jettySize=auto;html=1;exitX=0;exitY=1;exitDx=0;exitDy=0;" edge="1" parent="1" source="Rzs6RU2i9_IVWcCldY1r-41" target="Rzs6RU2i9_IVWcCldY1r-43">
          <mxGeometry relative="1" as="geometry" />
        </mxCell>
        <mxCell id="Rzs6RU2i9_IVWcCldY1r-54" style="edgeStyle=orthogonalEdgeStyle;rounded=0;orthogonalLoop=1;jettySize=auto;html=1;exitX=0.5;exitY=1;exitDx=0;exitDy=0;" edge="1" parent="1" source="Rzs6RU2i9_IVWcCldY1r-41" target="Rzs6RU2i9_IVWcCldY1r-47">
          <mxGeometry relative="1" as="geometry" />
        </mxCell>
        <mxCell id="Rzs6RU2i9_IVWcCldY1r-41" value="Definition der Sprints" style="rhombus;whiteSpace=wrap;html=1;" vertex="1" parent="1">
          <mxGeometry x="366" y="860" width="96" height="100" as="geometry" />
        </mxCell>
        <mxCell id="Rzs6RU2i9_IVWcCldY1r-58" style="edgeStyle=orthogonalEdgeStyle;rounded=0;orthogonalLoop=1;jettySize=auto;html=1;exitX=0.5;exitY=0.989;exitDx=0;exitDy=0;entryX=0;entryY=0.5;entryDx=0;entryDy=0;exitPerimeter=0;" edge="1" parent="1" source="Rzs6RU2i9_IVWcCldY1r-46" target="Rzs6RU2i9_IVWcCldY1r-55">
          <mxGeometry relative="1" as="geometry" />
        </mxCell>
        <mxCell id="Rzs6RU2i9_IVWcCldY1r-43" value="Graphiken" style="swimlane;fontStyle=0;childLayout=stackLayout;horizontal=1;startSize=30;horizontalStack=0;resizeParent=1;resizeParentMax=0;resizeLast=0;collapsible=1;marginBottom=0;whiteSpace=wrap;html=1;" vertex="1" parent="1">
          <mxGeometry x="80" y="1000" width="140" height="120" as="geometry" />
        </mxCell>
        <mxCell id="Rzs6RU2i9_IVWcCldY1r-44" value="Schlicht" style="text;strokeColor=none;fillColor=none;align=left;verticalAlign=middle;spacingLeft=4;spacingRight=4;overflow=hidden;points=[[0,0.5],[1,0.5]];portConstraint=eastwest;rotatable=0;whiteSpace=wrap;html=1;" vertex="1" parent="Rzs6RU2i9_IVWcCldY1r-43">
          <mxGeometry y="30" width="140" height="30" as="geometry" />
        </mxCell>
        <mxCell id="Rzs6RU2i9_IVWcCldY1r-45" value="Schiffe" style="text;strokeColor=none;fillColor=none;align=left;verticalAlign=middle;spacingLeft=4;spacingRight=4;overflow=hidden;points=[[0,0.5],[1,0.5]];portConstraint=eastwest;rotatable=0;whiteSpace=wrap;html=1;" vertex="1" parent="Rzs6RU2i9_IVWcCldY1r-43">
          <mxGeometry y="60" width="140" height="30" as="geometry" />
        </mxCell>
        <mxCell id="Rzs6RU2i9_IVWcCldY1r-46" value="Karten" style="text;strokeColor=none;fillColor=none;align=left;verticalAlign=middle;spacingLeft=4;spacingRight=4;overflow=hidden;points=[[0,0.5],[1,0.5]];portConstraint=eastwest;rotatable=0;whiteSpace=wrap;html=1;" vertex="1" parent="Rzs6RU2i9_IVWcCldY1r-43">
          <mxGeometry y="90" width="140" height="30" as="geometry" />
        </mxCell>
        <mxCell id="Rzs6RU2i9_IVWcCldY1r-56" style="edgeStyle=orthogonalEdgeStyle;rounded=0;orthogonalLoop=1;jettySize=auto;html=1;exitX=0.5;exitY=1;exitDx=0;exitDy=0;" edge="1" parent="1" source="Rzs6RU2i9_IVWcCldY1r-47" target="Rzs6RU2i9_IVWcCldY1r-55">
          <mxGeometry relative="1" as="geometry" />
        </mxCell>
        <mxCell id="Rzs6RU2i9_IVWcCldY1r-47" value="Fertigstellung der Spielmechaniken" style="rounded=0;whiteSpace=wrap;html=1;" vertex="1" parent="1">
          <mxGeometry x="354" y="1000" width="120" height="60" as="geometry" />
        </mxCell>
        <mxCell id="Rzs6RU2i9_IVWcCldY1r-57" style="edgeStyle=orthogonalEdgeStyle;rounded=0;orthogonalLoop=1;jettySize=auto;html=1;exitX=0.5;exitY=0.989;exitDx=0;exitDy=0;entryX=1;entryY=0.5;entryDx=0;entryDy=0;exitPerimeter=0;" edge="1" parent="1" source="Rzs6RU2i9_IVWcCldY1r-50" target="Rzs6RU2i9_IVWcCldY1r-55">
          <mxGeometry relative="1" as="geometry" />
        </mxCell>
        <mxCell id="Rzs6RU2i9_IVWcCldY1r-48" value="Sound" style="swimlane;fontStyle=0;childLayout=stackLayout;horizontal=1;startSize=30;horizontalStack=0;resizeParent=1;resizeParentMax=0;resizeLast=0;collapsible=1;marginBottom=0;whiteSpace=wrap;html=1;" vertex="1" parent="1">
          <mxGeometry x="610" y="1000" width="140" height="90" as="geometry" />
        </mxCell>
        <mxCell id="Rzs6RU2i9_IVWcCldY1r-49" value="Background" style="text;strokeColor=none;fillColor=none;align=left;verticalAlign=middle;spacingLeft=4;spacingRight=4;overflow=hidden;points=[[0,0.5],[1,0.5]];portConstraint=eastwest;rotatable=0;whiteSpace=wrap;html=1;" vertex="1" parent="Rzs6RU2i9_IVWcCldY1r-48">
          <mxGeometry y="30" width="140" height="30" as="geometry" />
        </mxCell>
        <mxCell id="Rzs6RU2i9_IVWcCldY1r-50" value="Spielerinteraktionen" style="text;strokeColor=none;fillColor=none;align=left;verticalAlign=middle;spacingLeft=4;spacingRight=4;overflow=hidden;points=[[0,0.5],[1,0.5]];portConstraint=eastwest;rotatable=0;whiteSpace=wrap;html=1;" vertex="1" parent="Rzs6RU2i9_IVWcCldY1r-48">
          <mxGeometry y="60" width="140" height="30" as="geometry" />
        </mxCell>
        <mxCell id="Rzs6RU2i9_IVWcCldY1r-61" style="edgeStyle=orthogonalEdgeStyle;rounded=0;orthogonalLoop=1;jettySize=auto;html=1;exitX=1;exitY=1;exitDx=0;exitDy=0;" edge="1" parent="1" source="Rzs6RU2i9_IVWcCldY1r-55" target="Rzs6RU2i9_IVWcCldY1r-59">
          <mxGeometry relative="1" as="geometry" />
        </mxCell>
        <mxCell id="Rzs6RU2i9_IVWcCldY1r-62" style="edgeStyle=orthogonalEdgeStyle;rounded=0;orthogonalLoop=1;jettySize=auto;html=1;exitX=0;exitY=1;exitDx=0;exitDy=0;" edge="1" parent="1" source="Rzs6RU2i9_IVWcCldY1r-55" target="Rzs6RU2i9_IVWcCldY1r-60">
          <mxGeometry relative="1" as="geometry" />
        </mxCell>
        <mxCell id="Rzs6RU2i9_IVWcCldY1r-55" value="Review" style="rhombus;whiteSpace=wrap;html=1;" vertex="1" parent="1">
          <mxGeometry x="374" y="1160" width="80" height="80" as="geometry" />
        </mxCell>
        <mxCell id="Rzs6RU2i9_IVWcCldY1r-65" style="edgeStyle=orthogonalEdgeStyle;rounded=0;orthogonalLoop=1;jettySize=auto;html=1;exitX=0.5;exitY=1;exitDx=0;exitDy=0;entryX=1;entryY=0.5;entryDx=0;entryDy=0;" edge="1" parent="1" source="Rzs6RU2i9_IVWcCldY1r-59" target="Rzs6RU2i9_IVWcCldY1r-41">
          <mxGeometry relative="1" as="geometry">
            <Array as="points">
              <mxPoint x="570" y="1360" />
              <mxPoint x="800" y="1360" />
              <mxPoint x="800" y="910" />
            </Array>
          </mxGeometry>
        </mxCell>
        <mxCell id="Rzs6RU2i9_IVWcCldY1r-59" value="Denied" style="rounded=0;whiteSpace=wrap;html=1;" vertex="1" parent="1">
          <mxGeometry x="510" y="1280" width="120" height="60" as="geometry" />
        </mxCell>
        <mxCell id="Rzs6RU2i9_IVWcCldY1r-64" style="edgeStyle=orthogonalEdgeStyle;rounded=0;orthogonalLoop=1;jettySize=auto;html=1;exitX=0.5;exitY=1;exitDx=0;exitDy=0;" edge="1" parent="1" source="Rzs6RU2i9_IVWcCldY1r-60" target="Rzs6RU2i9_IVWcCldY1r-63">
          <mxGeometry relative="1" as="geometry" />
        </mxCell>
        <mxCell id="Rzs6RU2i9_IVWcCldY1r-60" value="Approval" style="rounded=0;whiteSpace=wrap;html=1;" vertex="1" parent="1">
          <mxGeometry x="210" y="1280" width="120" height="60" as="geometry" />
        </mxCell>
        <mxCell id="Rzs6RU2i9_IVWcCldY1r-63" value="Full Release" style="rounded=1;whiteSpace=wrap;html=1;" vertex="1" parent="1">
          <mxGeometry x="354" y="1400" width="120" height="60" as="geometry" />
        </mxCell>
      </root>
    </mxGraphModel>
  </diagram>
</mxfile>
